<svg width="24" height="24" viewBox="0 0 24 24" xmlns="http://www.w3.org/2000/svg"><path d="M11.522 1.011a10.985 10.985 0 0 0-7.794 3.751 8.13 8.13 0 0 1 4.422 6.76h3.372V1.01zm.956 0v10.51h3.372a8.13 8.13 0 0 1 4.422-6.759 10.986 10.986 0 0 0-7.794-3.751zM3.115 5.527a10.948 10.948 0 0 0-2.104 5.995h6.182a7.174 7.174 0 0 0-4.078-5.995zm17.77 0a7.174 7.174 0 0 0-4.078 5.995h6.18a10.925 10.925 0 0 0-2.102-5.995zM1.011 12.478a10.942 10.942 0 0 0 2.104 5.995 7.173 7.173 0 0 0 4.078-5.995H1.011zm7.139 0a8.14 8.14 0 0 1-4.423 6.761 10.977 10.977 0 0 0 7.794 3.748V12.478H8.15zm4.328 0v10.51a10.98 10.98 0 0 0 7.794-3.749 8.135 8.135 0 0 1-4.422-6.76h-3.372zm4.329 0a7.174 7.174 0 0 0 4.078 5.995 10.927 10.927 0 0 0 2.102-5.995h-6.18z"/></svg>