<svg width="24" height="24" viewBox="0 0 24 24" xmlns="http://www.w3.org/2000/svg"><path d="M14.206 2c5.775 0 8.8 5.019 8.8 9.969 0 5.706-1.719 9.098-4.606 9.098h-.115c-2.52-.069-2.498-.986-2.613-2.452-.068-.802-.252-1.65-.664-2.338-.413-.664-1.008-1.214-1.627-1.696-.252-.183-.504-.366-.756-.527a1.106 1.106 0 0 0-.321-.206c-.459-.275-.963-.367-1.421 0-.298.252-.436.848-.092 1.169.413.366.917.618 1.352 1.008.527.458.871.963 1.123 1.65.23.665.275 1.535.023 2.2-.435 1.192-1.467 1.925-2.658 1.925-.344 0-.688-.069-1.009-.183-2.108-.78-3.941-2.407-5.591-4.95H2.197a.74.74 0 0 1-.733-.596c-.619-3.3-.619-7.242 0-10.542a.74.74 0 0 1 .733-.596h3.621C7.95 2.985 10.745 2 14.206 2z" fill-rule="evenodd"/></svg>