<svg width="24" height="24" viewBox="0 0 24 24" xmlns="http://www.w3.org/2000/svg"><path d="M18.08 1.446c-.473.01-.718.195-.718.195L6.254 12.795a.72.72 0 0 0 0 1.01l3.941 3.94a.72.72 0 0 0 1.01 0L22.357 6.637s.963-1.283-1.375-3.621C19.668 1.7 18.687 1.43 18.08 1.446zm-11.35.012c-.185 0-.363.022-.536.058-.319.422-.496 1.717.49 2.664.942.906 2.041.863 2.423.631.09-.26.143-.54.143-.832a2.525 2.525 0 0 0-2.52-2.52zm-1.558.543a2.514 2.514 0 0 0-.964 1.978A2.525 2.525 0 0 0 6.73 6.5a2.52 2.52 0 0 0 1.847-.81c-.126.006-.252.01-.376.01-.669 0-1.407-.25-2.099-.913-.866-.83-1.071-1.89-.93-2.786zm.873 13.066v.505c0 .505-.229.964-.55 1.284l-3.853 3.852c-.274.276-.274.78 0 1.055l.595.594a.778.778 0 0 0 1.056 0l3.852-3.853c.367-.364.825-.549 1.33-.549h.503l-2.933-2.888z" fill="#000" fill-rule="nonzero"/></svg>