<svg width="24" height="24" viewBox="0 0 24 24" xmlns="http://www.w3.org/2000/svg"><path d="M20.681 1a.48.48 0 0 0-.461.348l-3.228 11.237a4.456 4.456 0 0 1-4.321 3.241H4.587A3.59 3.59 0 0 0 1 19.413 3.59 3.59 0 0 0 4.587 23h6.888c3.214 0 5.993-2.098 6.914-5.225l4.579-16.166a.478.478 0 0 0-.46-.61L20.681 1zM7.217 3.391C3.783 3.391 1 4.568 1 6.021c0 1.455 2.783 2.631 6.217 2.631 3.434 0 6.218-1.176 6.218-2.63s-2.784-2.63-6.218-2.63zM1 7.905v1.943c0 1.454 2.783 2.63 6.217 2.63 3.434 0 6.218-1.176 6.218-2.63V7.905C12.127 9.03 9.663 9.609 7.217 9.609c-2.445 0-4.91-.579-6.217-1.704zm3.826 8.878h7.652v5.26H4.826v-5.26z"/></svg>