<svg width="22" height="22" viewBox="0 0 22 22" xmlns="http://www.w3.org/2000/svg"><path d="M21.96 9.952c.07.687.07 1.398 0 2.108a1.143 1.143 0 0 1-.962.986c-.619.068-1.88.229-1.88.229-.55.114-.962.619-.962 1.192 0 .252.069.48.206.664 0 .023.757 1.009 1.146 1.513.321.39.298.962-.023 1.352a9.16 9.16 0 0 1-1.49 1.49.986.986 0 0 1-.687.252 1.02 1.02 0 0 1-.664-.23l-1.49-1.146a1.161 1.161 0 0 0-.687-.206c-.596 0-1.078.436-1.192 1.009l-.23 1.833a1.143 1.143 0 0 1-.985.962c-.344.023-.71.046-1.054.046-.344 0-.71-.023-1.054-.046a1.143 1.143 0 0 1-.986-.962s-.229-1.81-.229-1.833a1.208 1.208 0 0 0-1.191-1.009c-.275 0-.528.092-.734.23l-1.444 1.122a1.02 1.02 0 0 1-.664.23c-.252 0-.481-.092-.688-.253a9.16 9.16 0 0 1-1.49-1.49c-.32-.389-.343-.962-.022-1.351l1.1-1.444c.16-.206.252-.458.252-.733 0-.62-.459-1.123-1.054-1.192l-1.788-.23a1.143 1.143 0 0 1-.962-.985 10.801 10.801 0 0 1 0-2.108c.045-.504.458-.917.962-.986l1.788-.229a1.233 1.233 0 0 0 1.054-1.214c0-.252-.092-.505-.252-.71l-1.1-1.445a1.041 1.041 0 0 1 .023-1.352 9.16 9.16 0 0 1 1.49-1.49c.389-.32.962-.343 1.351-.022l1.444 1.123c.206.137.459.229.734.229.595 0 1.1-.436 1.191-1.009l.23-1.833a1.14 1.14 0 0 1 .985-.962 10.801 10.801 0 0 1 2.108 0c.504.068.917.458.986.962l.229 1.833c.114.573.596 1.009 1.192 1.009.252 0 .48-.092.687-.206 0 0 .986-.757 1.49-1.146.39-.321.962-.298 1.352.023a9.16 9.16 0 0 1 1.49 1.49c.32.389.343.962.022 1.351 0 0-1.146 1.49-1.146 1.513a1.072 1.072 0 0 0-.206.642c0 .595.413 1.077.963 1.214 0 0 1.26.16 1.879.23.504.068.894.48.962.985zm-10.954 4.79a3.736 3.736 0 1 0-.001-7.473 3.736 3.736 0 0 0 .001 7.473z" fill-rule="evenodd"/></svg>