<svg width="24" height="24" viewBox="0 0 24 24" xmlns="http://www.w3.org/2000/svg"><path d="M12 1c6.073 0 11 4.927 11 11s-4.927 11-11 11S1 18.073 1 12 5.927 1 12 1zm0 19.869A8.861 8.861 0 0 0 20.869 12a8.912 8.912 0 0 0-1.421-4.812c-1.008.618-2.154 1.122-2.154 1.122-1.467-1.42-3.14-2.13-3.14-2.13s.184-1.399.573-2.636A9.038 9.038 0 0 0 12 3.13 8.861 8.861 0 0 0 3.131 12c0 2.131.734 4.08 1.994 5.615.619-.459 1.352-.825 1.352-.825s1.558 1.398 3.094 2.04c0 0 .137.824.137 1.74a9.37 9.37 0 0 0 2.292.3zm-5.202-7.402c-1.26-1.146-2.131-2.934-2.131-2.934S5.79 8.265 7.508 6.867c1.857.298 3.025 1.214 3.025 1.214v3.575s-1.741.596-3.735 1.81zm9.854 4.4c-1.581.046-3.185-.986-3.185-.986v-3.483s2.04-.756 3.643-1.65c0 0 .94 1.077 1.673 2.842 0 0-.733 2.016-2.13 3.277z" fill-rule="evenodd"/></svg>