<svg width="24" height="24" viewBox="0 0 24 24" xmlns="http://www.w3.org/2000/svg"><path d="M21.604 2.398c1.444 1.444 1.582 4.652 1.238 7.173-.298 2.04-1.238 5.912-4.286 8.937C14.408 22.68 8.908 23 7.327 23c-1.581 0-3.69-.252-4.881-1.444-1.513-1.49-1.65-4.698-1.26-7.218.297-2.017 1.237-5.844 4.285-8.892C9.596 1.32 15.14 1 16.746 1c1.581 0 3.712.252 4.858 1.398zm-9.716 15.148c.32 0 .641-.138.87-.367a1.218 1.218 0 0 0 0-1.764L11.567 14.2l2.635-2.635 1.192 1.214c.252.23.573.367.894.367.32 0 .641-.138.87-.367.505-.504.505-1.283 0-1.764L15.967 9.8l1.168-1.169a1.259 1.259 0 0 0 0-1.764 1.259 1.259 0 0 0-1.764 0l-1.169 1.168-1.214-1.191c-.482-.504-1.26-.504-1.765 0a1.259 1.259 0 0 0 0 1.764L12.438 9.8l-2.636 2.635-1.214-1.191c-.482-.504-1.26-.504-1.765 0a1.259 1.259 0 0 0 0 1.764L8.038 14.2l-1.17 1.169a1.259 1.259 0 0 0 0 1.764c.23.252.55.367.872.367.32 0 .641-.115.893-.367l1.17-1.168 1.19 1.214c.253.23.574.367.895.367z" fill-rule="evenodd"/></svg>