<svg xmlns="http://www.w3.org/2000/svg" viewBox="14 10 24 24"><circle cx="33" cy="32" r="3.125"/><path d="M36.026 14.597l-2.122-2.122a1.783 1.783 0 0 0-1.272-.525c-.482 0-.935.187-1.274.528l-6.068 6.068c-.685.684-2.396 3.106-3.084 4.482-.703 1.405-1.43 2.857-2.159 3.588l-5.86 5.86-.495-.495a.502.502 0 0 0-.707 0l-.505.506a.502.502 0 0 0 0 .707l2.828 2.828a.502.502 0 0 0 .707 0l.505-.504a.503.503 0 0 0 .001-.707l-.496-.495 5.861-5.861c.73-.73 2.184-1.457 3.588-2.16 1.377-.688 3.799-2.399 4.482-3.083l6.071-6.07c.339-.338.524-.79.524-1.273 0-.482-.186-.934-.525-1.272z"/></svg>