<svg xmlns="http://www.w3.org/2000/svg" viewBox="12 12 24 24"><path d="M31 27c0-3-3.312-3.798-3.312-3.798S30 22.979 30 20.312v-2.031c0-1.433-1.203-2.466-3-2.958V12.5a.5.5 0 0 0-.5-.5h-3a.5.5 0 0 0-.5.5V15h-1v-2.5a.5.5 0 0 0-.5-.5h-3a.5.5 0 0 0-.5.5V15h-2.5c-.275 0-.5.225-.5.5v2c0 .275.225.5.5.5h.5v12h-.5c-.275 0-.5.225-.5.5v2c0 .275.225.5.5.5H18v2.5a.5.5 0 0 0 .5.5h3a.5.5 0 0 0 .5-.5V33h1v2.5a.5.5 0 0 0 .5.5h3a.5.5 0 0 0 .5-.5v-2.612c2.242-.29 4-1.318 4-4.888 0-.263.027-.76 0-1zm-11-9h4c.855 0 2.708 0 2.708 1.962S25.5 22 23.7 22H20v-4zm4.425 12H20v-5h5c1.675 0 2.374.178 2.374 2.6 0 2.421-1.399 2.4-2.949 2.4z"/></svg>