<svg xmlns="http://www.w3.org/2000/svg" viewBox="0 0 17.8 17.8"><path d="M4.4 17.1l-.4-.2c-.1 0-.2-.2-.1-.3L11.3.8c0-.1.2-.2.3-.1l.4.2c.1 0 .2.2.1.3L4.7 17c-.1.1-.2.2-.3.1z"/><path d="M6 14.1l1.1-2.3v-1.7h.8l.9-2H7.1v-2h2.6L11 3.2c0-.1-.1-.1-.2-.1H9.4c-.1 0-.2.1-.2.2v.8h-1v-.8c0-.1-.1-.2-.2-.2H6.4c-.1 0-.2.1-.2.2v.8H4.4c-.1 0-.2.1-.2.2v1.5c0 .1.1.2.2.2h.8v6h-.8c-.1 0-.2.1-.2.2v1.5c0 .1.1.2.2.2h.8c-.1.2.3.2.8.2zM11.4 8.7S13 8.2 13 6.6c0-1-.8-1.6-1.6-2l-.9 1.9c.2.3.2.7.2.7s0 1-1 1l-.9 2h2c1 0 1 1 1 1s0 1-1 1H7.9l-1.4 3h1.4c.1 0 .2-.1.2-.2v-.8h1v.8c0 .1.1.2.2.2h1.5c.1 0 .2-.1.2-.2v-.8c.9 0 2.8 0 2.8-2.9.1-2.3-2.4-2.6-2.4-2.6z"/></svg>