<svg width="24" height="24" viewBox="0 0 24 24" xmlns="http://www.w3.org/2000/svg"><path d="M8.333 12.458V9.25L12 12.917H8.792a.46.46 0 0 1-.459-.459zm-.458 1.375H12v8.709a.46.46 0 0 1-.458.458H1.458A.46.46 0 0 1 1 22.542V9.708a.46.46 0 0 1 .458-.458h5.959v4.125a.46.46 0 0 0 .458.458zm5.978-8.25h5.46c.505 0 .937-.397.937-.903v-.9c0-.506-.432-.947-.936-.947h-.897v-.836c0-.506-.413-.997-.917-.997h-1.833c-.505 0-.917.491-.917.997v.836h-.897c-.505 0-.936.441-.936.947v.9c0 .506.431.903.936.903zm.714 10.267h-1.65v2.567h1.65V15.85zm7.975-12.1h-1.375V5.6c0 .506-.413.9-.917.9h-7.333A.904.904 0 0 1 12 5.6V3.75h-1.375a.47.47 0 0 0-.458.47v5.03l2.566 2.567h1.834V8.342l5.492 5.492-4.583 4.583h7.066c.252 0 .458-.139.458-.392V4.22a.47.47 0 0 0-.458-.47zM18.06 13.834l-2.393-2.394v1.477h-2.75v1.833h2.75v1.478l2.393-2.394z"/></svg>