<svg xmlns="http://www.w3.org/2000/svg" viewBox="0 0 68 68"><path d="M47.76 24.28l-8.85 8.85c-.48.48-.48 1.27 0 1.75l8.85 8.85c.23.23.55.36.88.36h18.13c.68 0 1.24-.55 1.24-1.24v-17.7c0-.68-.55-1.24-1.24-1.24H48.63c-.33.01-.64.14-.87.37zM20.24 24.28l8.85 8.85c.48.48.48 1.27 0 1.75l-8.85 8.85c-.23.23-.55.36-.88.36H1.24C.55 44.08 0 43.53 0 42.85V25.16c0-.68.55-1.24 1.24-1.24h18.13c.33 0 .64.13.87.36zM43.72 47.76l-8.85-8.85c-.48-.48-1.27-.48-1.75 0l-8.85 8.85c-.23.23-.36.55-.36.88v18.13c0 .68.55 1.24 1.24 1.24h17.69c.68 0 1.24-.55 1.24-1.24V48.63c0-.33-.13-.64-.36-.87zM43.72 20.24l-8.85 8.85c-.48.48-1.27.48-1.75 0l-8.85-8.85c-.23-.23-.36-.55-.36-.88V1.24c0-.68.55-1.24 1.24-1.24h17.69c.68 0 1.24.55 1.24 1.24v18.13c0 .33-.13.64-.36.87z"/></svg>