<svg width="24" height="24" viewBox="0 0 24 24" xmlns="http://www.w3.org/2000/svg"><path d="M21.908 13.288c.054-.423.092-.85.092-1.288 0-.438-.038-.865-.092-1.288l-2.641-.66a7.478 7.478 0 0 0-.75-1.814l1.4-2.332a10.03 10.03 0 0 0-1.823-1.823l-2.332 1.4a7.462 7.462 0 0 0-1.813-.749l-.661-2.641A9.892 9.892 0 0 0 12 2c-.438 0-.865.038-1.288.092l-.66 2.641a7.484 7.484 0 0 0-1.812.75L5.907 4.081a10.03 10.03 0 0 0-1.823 1.823l1.4 2.332a7.424 7.424 0 0 0-.75 1.814l-2.641.66A10.03 10.03 0 0 0 2 12c0 .438.038.865.092 1.288l2.641.66c.172.642.425 1.251.75 1.814l-1.4 2.332a10.03 10.03 0 0 0 1.823 1.823l2.331-1.4a7.558 7.558 0 0 0 1.814.75l.66 2.641c.423.055.85.092 1.288.092.439 0 .865-.038 1.288-.092l.66-2.641a7.49 7.49 0 0 0 1.815-.75l2.332 1.4a10.051 10.051 0 0 0 1.823-1.823l-1.4-2.332c.325-.563.576-1.17.749-1.813l2.642-.661zM12 15.498a3.498 3.498 0 1 1 0-6.996 3.498 3.498 0 0 1 0 6.996z"/></svg>