<svg width="24" height="24" viewBox="0 0 24 24" xmlns="http://www.w3.org/2000/svg"><path d="M24 19.5c0 .275-.225.5-.5.5h-18a.501.501 0 0 1-.5-.5v-2c0-.275.225-.5.5-.5h18c.275 0 .5.225.5.5v2zm-21 0c0 .275-.225.5-.5.5h-2a.501.501 0 0 1-.5-.5v-2c0-.275.225-.5.5-.5h2c.275 0 .5.225.5.5v2zm21-6c0 .275-.225.5-.5.5h-18a.501.501 0 0 1-.5-.5v-2c0-.275.225-.5.5-.5h18c.275 0 .5.225.5.5v2zm-21 0c0 .275-.225.5-.5.5h-2a.501.501 0 0 1-.5-.5v-2c0-.275.225-.5.5-.5h2c.275 0 .5.225.5.5v2zm21-6c0 .275-.225.5-.5.5h-18a.501.501 0 0 1-.5-.5v-2c0-.275.225-.5.5-.5h18c.275 0 .5.225.5.5v2zm-21 0c0 .275-.225.5-.5.5h-2a.501.501 0 0 1-.5-.5v-2c0-.275.225-.5.5-.5h2c.275 0 .5.225.5.5v2z"/></svg>