<svg width="24" height="24" viewBox="0 0 24 24" xmlns="http://www.w3.org/2000/svg"><path d="M7.356 1C6.28 1 5.4 1.88 5.4 2.956c0 1.075.88 1.955 1.956 1.955 1.075 0 1.955-.88 1.955-1.955C9.311 1.88 8.431 1 7.356 1zm12.71.489c-1.075 0-1.955.88-1.955 1.955 0 1.076.88 1.956 1.956 1.956 1.075 0 1.955-.88 1.955-1.956 0-1.075-.88-1.955-1.955-1.955zm-4.858 2.414a1.148 1.148 0 0 0-.229.03L5.843 5.981c-.538.098-.983.403-1.375.794L1.642 9.892a1.41 1.41 0 0 0-.2 1.62c.343.635 1.075.885 1.758.641l.733-.306 2.048-.825c.538-.194.836-.836.641-1.375-.098-.293-.286-.48-.58-.626-.147-.05-.296-.107-.444-.107-.146 0-.3.057-.396.107l-.688.245h-.138a.49.49 0 0 1-.489-.49.47.47 0 0 1 .337-.443l.687-.29a2.01 2.01 0 0 1 .78-.153c.293 0 .596.052.84.199.538.244.922.638 1.069 1.176.391 1.028-.15 2.19-1.176 2.582l-2.445.978v4.018l-1.466 4.889c-.196.684.156 1.36.84 1.604.342.098.684.102.977-.046a1.26 1.26 0 0 0 .627-.779l1.375-4.644.198-3.132 1.36 2.795v4.737c0 .683.538 1.222 1.223 1.222.683 0 1.222-.539 1.222-1.222v-4.981c0-.293-.04-.55-.138-.794l-1.62-4.828L9.603 7.69l5.973-1.512c.294-.097.525-.286.672-.58.147-.294.204-.592.108-.886-.173-.514-.638-.835-1.146-.81zm3.071 2.108a2.576 2.576 0 0 0-1.68.611l-2.842 2.49-2.888.642c-.586.147-.972.728-.825 1.314.147.587.682.988 1.269.84l2.978-.595c.05 0 .058.004.108-.046l2.092-1.314-1.114 3.468-1.956 2.933a1.781 1.781 0 0 0-.352.825l-.825 4.935c-.097.635.296 1.232.932 1.33h.245c.244 0 .493-.052.688-.2.244-.194.439-.437.488-.779l.87-4.445 2.2-2.842 2.002 7.333c.098.342.302.584.597.78.293.146.635.204.977.106.636-.195 1.017-.892.87-1.527l-1.893-7.181.091-.443c-.147-.05-.25-.147-.397-.244l-1.512-1.177c-.44-.342-.682-.822-.78-1.36a2.128 2.128 0 0 1 .443-1.512 2.056 2.056 0 0 1 1.605-.795c.439 0 .88.153 1.222.398l.595.442c.098.098.138.19.138.337 0 .293-.195.489-.489.489a.366.366 0 0 1-.244-.092l-.58-.443a1 1 0 0 0-.643-.199c-.293 0-.63.153-.825.397-.194.245-.244.485-.244.78.05.294.202.54.397.687l1.513 1.177c.05.049.146.088.244.137.05 0 .042.046.092.046.049 0 .103.061.152.061.05 0 .043-.004.092.046.05 0 .103-.004.153.046h.244c.245 0 .493-.052.688-.199.147-.098.235-.143.382-.29.342-.391.498-.883.352-1.42l-.734-3.27a2.619 2.619 0 0 0-1.818-1.818l-1.467-.383a2.631 2.631 0 0 0-.611-.076z"/></svg>