<svg width="24" height="24" viewBox="0 0 24 24" xmlns="http://www.w3.org/2000/svg"><path d="M9.356 21.995A2.827 2.827 0 0 0 12 23.833a2.828 2.828 0 0 0 2.643-1.837c-.836.064-1.717.104-2.643.104-.927 0-1.807-.041-2.644-.105zM22.209 17h-.375l-2.5-3L18 7h-.013A6.069 6.069 0 0 0 13.3 2.079c.004-.01.013-.019.016-.028l.367-1.102C13.857.427 13.55 0 13 0h-2c-.55 0-.857.427-.684.949l.367 1.102c.003.01.012.018.016.028A6.069 6.069 0 0 0 6.013 7H6l-1.334 7-2.5 3h-.375c-.55 0-1 .45-1 1s.42 1.161.934 1.358C1.725 19.358 6 21 12 21s10.275-1.642 10.275-1.642c.514-.197.934-.809.934-1.358s-.45-1-1-1z"/></svg>