<svg width="24" height="24" viewBox="0 0 24 24" xmlns="http://www.w3.org/2000/svg"><path d="M12 23C5.925 23 1 18.075 1 12S5.925 1 12 1s11 4.925 11 11-4.925 11-11 11zm.92-13.464c0 .752-.384 1.072-.928 1.552l-.976.784c-.816.672-.864.96-.864 1.904V14.8h2.672v-.624c0-.272.064-.448.224-.576l1.344-1.104c1.12-.912 1.616-1.712 1.616-3.072 0-2-1.248-3.424-4.336-3.424C8.52 6 6.984 7.84 7 10.352h3.024c.016-1.648.848-1.968 1.568-1.968.896 0 1.328.432 1.328 1.152zm.224 9.2v-2.72H9.848v2.72h3.296z" fill-rule="evenodd"/></svg>