<svg width="24" height="24" viewBox="0 0 24 24" xmlns="http://www.w3.org/2000/svg"><g fill="#000" fill-rule="nonzero"><path d="M12.188 1a6.458 6.458 0 0 1-1.887 5.086L8.346 8.04a5.339 5.339 0 0 0-1.574 3.801c0 1.437.558 2.786 1.574 3.802a5.339 5.339 0 0 0 3.802 1.574 5.339 5.339 0 0 0 3.802-1.574l1.955-1.955a6.458 6.458 0 0 1 5.08-1.887 10.953 10.953 0 0 0-3.218-7.583A10.964 10.964 0 0 0 12.188 1z"/><path d="M18.7 14.485l-1.954 1.955a6.458 6.458 0 0 1-4.598 1.905 6.458 6.458 0 0 1-4.597-1.905 6.458 6.458 0 0 1-1.905-4.598c0-1.737.676-3.369 1.905-4.597L9.505 5.29a5.338 5.338 0 0 0 1.555-4.252 10.936 10.936 0 0 0-6.84 3.18c-4.293 4.293-4.293 11.253 0 15.548 4.292 4.293 11.252 4.293 15.547 0a10.956 10.956 0 0 0 3.181-6.837 5.26 5.26 0 0 0-.445-.018 5.334 5.334 0 0 0-3.802 1.574z"/></g></svg>