<?xml version="1.0" standalone="no"?>
<!DOCTYPE svg PUBLIC "-//W3C//DTD SVG 20010904//EN"
 "http://www.w3.org/TR/2001/REC-SVG-20010904/DTD/svg10.dtd">
<svg version="1.0" xmlns="http://www.w3.org/2000/svg"
 width="700.000000pt" height="700.000000pt" viewBox="0 0 700.000000 700.000000"
 preserveAspectRatio="xMidYMid meet">
<metadata>
Created by potrace 1.11, written by Peter Selinger 2001-2013
</metadata>
<g transform="translate(0.000000,700.000000) scale(0.100000,-0.100000)"
fill="#000000" stroke="none">
<path d="M217 6373 c-16 -25 -29 -234 -24 -368 15 -387 129 -680 351 -900 192
-191 440 -306 780 -361 178 -29 456 -34 2006 -34 1024 0 1588 -4 1611 -10 54
-15 100 -50 123 -95 28 -53 27 -143 -2 -207 -24 -54 -97 -137 -159 -179 -80
-56 -115 -59 -595 -59 l-437 0 -10 -37 c-5 -21 -80 -306 -165 -634 -86 -327
-156 -601 -156 -607 0 -9 112 -12 458 -12 420 0 460 -2 497 -19 52 -23 101
-80 115 -133 34 -125 -66 -299 -212 -368 l-63 -30 -738 0 c-699 0 -738 1 -733
18 8 25 456 1830 456 1837 0 3 -374 4 -832 3 l-831 -3 -452 -1785 -451 -1785
1620 -3 c1119 -2 1661 0 1751 8 568 48 1108 304 1529 724 394 395 646 899 712
1426 32 256 7 496 -76 739 l-39 114 78 106 c268 363 396 666 466 1106 21 129
21 380 1 494 -64 355 -251 641 -539 824 -150 96 -342 169 -550 209 l-112 22
-2687 3 c-1478 2 -2689 0 -2691 -4z"/>
</g>
</svg>
