<?xml version="1.0" standalone="no"?>
<!DOCTYPE svg PUBLIC "-//W3C//DTD SVG 20010904//EN"
 "http://www.w3.org/TR/2001/REC-SVG-20010904/DTD/svg10.dtd">
<svg version="1.0" xmlns="http://www.w3.org/2000/svg"
 width="1926.000000pt" height="1926.000000pt" viewBox="0 0 1926.000000 1926.000000"
 preserveAspectRatio="xMidYMid meet">
<metadata>
Created by potrace 1.11, written by Peter Selinger 2001-2013
</metadata>
<g transform="translate(0.000000,1926.000000) scale(0.100000,-0.100000)"
fill="#000000" stroke="none">
<path d="M1036 17142 c-5 -9 -32 -186 -41 -277 -4 -33 -8 -70 -10 -83 -24
-151 -24 -789 1 -916 2 -11 6 -47 9 -80 3 -34 7 -72 10 -86 2 -14 7 -41 9 -60
7 -55 37 -223 41 -230 2 -3 6 -21 9 -40 8 -52 50 -211 84 -320 66 -210 158
-427 257 -604 49 -88 54 -95 103 -171 18 -27 38 -58 45 -69 106 -163 304 -382
508 -561 183 -161 512 -363 779 -478 279 -120 619 -223 900 -273 14 -2 36 -7
50 -10 14 -3 39 -8 55 -10 17 -2 48 -6 70 -10 43 -7 55 -9 125 -18 25 -3 56
-8 70 -11 36 -7 160 -18 325 -29 55 -4 129 -9 165 -12 36 -3 2049 -5 4475 -5
4796 0 4482 3 4610 -54 297 -131 415 -430 288 -732 -38 -88 -101 -196 -165
-279 -62 -81 -66 -86 -153 -155 -127 -101 -257 -168 -405 -206 -14 -4 -549 -8
-1190 -9 -641 -2 -1174 -3 -1186 -4 -18 0 -25 -14 -49 -102 -15 -57 -29 -114
-32 -127 -2 -14 -6 -28 -9 -33 -3 -4 -7 -16 -9 -25 -1 -10 -15 -62 -30 -116
-14 -53 -28 -105 -30 -115 -2 -9 -18 -69 -35 -132 -65 -239 -101 -376 -105
-393 -2 -10 -22 -84 -44 -165 -21 -81 -43 -160 -47 -177 -4 -16 -8 -34 -10
-40 -9 -33 -85 -313 -89 -330 -2 -11 -21 -78 -40 -150 -20 -71 -38 -139 -40
-150 -2 -11 -14 -54 -25 -95 -11 -41 -23 -83 -25 -93 -2 -10 -7 -27 -10 -37
-3 -10 -8 -28 -10 -39 -7 -30 -11 -43 -45 -171 -18 -63 -34 -126 -37 -139 -2
-14 -6 -28 -9 -33 -3 -4 -7 -16 -9 -26 -2 -10 -18 -72 -35 -138 -18 -65 -33
-123 -35 -129 -1 -5 -7 -30 -14 -55 -7 -25 -15 -52 -17 -60 -1 -8 -16 -64 -33
-125 -16 -60 -29 -111 -27 -112 1 -2 526 -3 1167 -4 951 -1 1176 -3 1229 -15
204 -43 372 -202 424 -402 18 -68 18 -186 -1 -270 -18 -80 -85 -226 -143 -311
-52 -77 -176 -205 -252 -259 -114 -83 -271 -152 -380 -168 -75 -12 -3808 -10
-3808 1 0 6 11 51 25 100 14 50 27 101 30 115 2 14 37 151 76 305 39 154 72
287 74 295 2 8 8 35 15 60 7 25 14 52 16 60 2 8 8 35 15 60 6 25 12 53 14 63
2 10 7 27 10 37 3 10 8 27 10 37 2 10 22 88 44 173 22 85 60 238 85 340 25
102 50 199 56 215 5 17 11 41 14 55 3 14 51 205 107 425 55 220 103 411 105
424 3 14 7 28 10 33 3 5 8 20 10 35 3 15 25 104 49 197 61 239 155 612 160
633 2 10 18 72 35 138 18 66 34 128 35 138 2 9 11 45 20 80 9 34 18 69 20 77
2 8 31 123 65 255 34 132 63 249 65 260 2 11 12 54 23 95 11 41 19 77 16 81
-2 4 -984 7 -2181 6 l-2177 -2 -7 -30 c-5 -23 -65 -255 -114 -445 -9 -33 -27
-106 -31 -124 -2 -10 -8 -33 -13 -50 -8 -25 -81 -305 -96 -366 -1 -8 -11 -44
-20 -80 -9 -36 -18 -72 -20 -80 -2 -8 -8 -35 -15 -60 -7 -25 -14 -52 -16 -60
-2 -8 -28 -109 -58 -225 -79 -304 -126 -488 -131 -507 -2 -9 -20 -79 -40 -155
-20 -76 -38 -145 -40 -153 -8 -35 -35 -141 -54 -215 -12 -44 -23 -87 -25 -95
-2 -8 -25 -96 -51 -195 -25 -99 -48 -187 -50 -195 -2 -8 -19 -76 -38 -150 -19
-74 -62 -241 -95 -370 -33 -129 -99 -386 -147 -570 -156 -605 -176 -683 -221
-860 -25 -96 -49 -188 -54 -205 -5 -16 -12 -41 -14 -55 -3 -14 -23 -92 -44
-175 -22 -82 -72 -276 -111 -430 -40 -154 -86 -332 -103 -395 -16 -63 -31
-122 -33 -130 -2 -8 -13 -51 -24 -95 -12 -44 -24 -91 -27 -105 -2 -14 -11 -47
-19 -75 -8 -27 -39 -149 -70 -270 -31 -121 -70 -272 -87 -335 -16 -63 -32
-126 -34 -140 -3 -14 -9 -38 -15 -55 -5 -16 -41 -154 -80 -305 -39 -151 -86
-336 -105 -410 -19 -74 -36 -142 -38 -150 -9 -37 -130 -504 -152 -589 -14 -51
-28 -103 -30 -115 -2 -11 -14 -60 -27 -109 l-24 -87 26 -1 c117 -2 8595 2
8626 5 22 2 87 6 145 10 58 4 116 9 130 11 14 2 54 6 90 10 36 3 72 8 80 10 8
2 40 6 70 10 30 3 64 7 75 9 11 2 67 11 125 21 84 14 311 60 390 80 8 2 44 11
80 20 36 9 83 21 105 26 62 15 338 98 360 109 11 5 45 16 75 26 259 80 771
312 1085 492 195 112 602 373 625 401 3 3 41 33 85 65 75 56 274 213 285 226
3 3 21 18 40 34 138 113 531 497 655 640 283 326 506 627 709 960 36 59 66
110 66 111 0 2 23 43 51 92 89 153 220 420 299 608 23 55 48 114 55 130 31 69
140 378 181 515 41 132 109 397 118 454 4 21 8 41 10 45 2 3 7 29 10 56 4 28
9 57 11 65 11 38 39 229 50 335 3 33 8 74 10 90 23 179 23 720 0 845 -1 8 -6
49 -10 90 -11 115 -62 388 -100 535 -62 242 -154 490 -259 705 -51 104 -51
105 -32 125 35 36 187 247 284 395 299 451 548 961 708 1450 62 190 144 486
159 580 3 19 11 55 17 80 6 25 11 54 13 65 1 11 5 38 10 60 4 22 9 49 11 60 5
25 24 131 29 165 7 39 33 229 40 285 12 108 19 278 20 445 0 583 -107 1069
-338 1544 -154 316 -334 566 -597 826 -191 190 -341 308 -590 466 -156 99
-458 241 -660 312 -211 74 -442 138 -565 158 -22 3 -43 8 -46 10 -4 2 -24 6
-45 9 -22 3 -61 10 -89 15 -53 10 -89 15 -170 25 -27 4 -60 8 -72 10 -12 2
-60 7 -105 10 -46 4 -101 10 -123 13 -61 9 -13853 13 -13859 4z"/>
</g>
</svg>
