<svg viewBox="0 0 47 41" xmlns="http://www.w3.org/2000/svg"><path d="M46,11.0082728 L35.2854104,11.0082728 L35.0904519,11.0082728 C34.4784991,10.9972424 33.8286377,10.9972424 33.2166849,11.0082728 L32.9432016,11.0082728 C32.9432016,11.0082728 32.8484301,11.0082728 32.8484301,11.0082728 C32.8484301,11.0082728 32.8484301,11.1985477 32.8484301,11.3888225 L32.8484301,11.6507951 C32.8565534,11.686644 32.8565534,11.7417961 32.8565534,11.7693722 C33.7338663,11.6204614 34.6761653,12.2298925 34.7411514,13.137145 C34.7492747,13.2391764 34.7438592,13.3412078 34.7276127,13.4487545 C34.6436722,14.3863407 33.9125782,15.0757423 33.148991,15.5142017 C33.0758816,15.5472929 33.00548,15.5776266 32.9296628,15.6052027 C32.7076268,15.6851733 32.4801754,15.729295 32.2500161,15.729295 L26.1223648,15.729295 L23.7314164,24.8624874 L29.8590678,24.8624874 C30.9042615,24.8624874 31.6516021,25.7752551 31.353749,26.8424488 C31.0558958,27.9068848 30.0079943,28.8224101 28.9628006,28.8224101 L18.9468119,28.8224101 L22.2340275,15.5803842 L10.4282122,15.5803842 L4,41 L26.5691445,41 C33.8936239,41 40.7659081,35.9756411 43.1595642,28.6734994 C44.3563922,25.0196709 44.0558313,21.6719368 42.7100767,19.0825444 C44.3536845,16.9509146 45.5505125,14.3642798 45.9972922,11.623219 C46,11.4660355 46,11.3143671 46,11.0082728 Z" fill="#D3D3D3"></path><path d="M46,11.0047103 C45.855377,11.2331239 45.724145,11.4705539 45.6598681,11.7260165 C45.6437989,11.7891308 45.6330861,11.8552505 45.6250515,11.9213703 C45.6357643,12.2189091 45.5955913,12.510437 45.539349,12.8049704 C45.5206016,12.9011446 45.4991759,13.0003242 45.4777503,13.0964983 C45.3063453,13.6855651 45.250103,14.3137026 45.1456531,14.9328238 C45.1295838,15.0350088 45.1108364,15.1401993 45.0867326,15.2423843 C45.0251339,15.4407436 44.9581788,15.6360973 44.8885455,15.8284457 C44.8537289,15.9246198 44.816234,16.020794 44.7787392,16.1169681 C44.6689328,16.3453818 44.5644829,16.5768009 44.460033,16.8112254 L44.355583,17.0456499 C44.3100536,17.1328078 44.2645241,17.2199656 44.2216728,17.3101289 C44.1788216,17.4002921 44.1359703,17.48745 44.0957973,17.5776133 C44.0583024,17.6617656 44.0208076,17.7429126 43.9806345,17.827065 C43.9404615,17.9112174 43.9002884,17.9923643 43.8601154,18.0765167 C43.5601566,18.7677685 43.158426,19.3688571 42.7566955,20 C42.9977338,19.4289659 43.0780799,18.797823 42.960239,18.1787018 C42.9388133,18.0915439 42.9147095,18.0073915 42.8825711,17.9262446 C42.855789,17.854114 42.8236506,17.7849888 42.7861557,17.7158636 C41.9505562,16.1139627 39.0714874,15.4557708 35.6487433,15.470798 C35.5175113,15.470798 35.3836012,15.4738034 35.2523692,15.4768089 C34.8586733,15.524896 34.4569427,15.4948415 34.0552122,15.524896 C34.3765966,15.1341884 34.6176349,14.683372 34.7756489,14.1964903 C34.8051092,14.0792781 34.8238566,13.9650712 34.8345694,13.8538699 C34.8452822,13.7426685 34.8452822,13.6314671 34.8345694,13.5262766 C34.8265348,13.4210861 34.8077874,13.3158956 34.7810054,13.2197215 C34.5640709,12.3691812 33.7338278,11.9484192 33.0107128,12.0385825 C33.0107128,11.7680927 33.0107128,11.4675484 33,11.2090804 L33,11.043781 L33.0723115,11.043781 C33.7873918,11.0467865 34.5105068,11.0467865 35.2336218,11.043781 L35.4023486,11.043781 L43.9806345,11.043781 L44.302019,11.043781 C44.8483725,11.0768409 45.3840132,10.9866776 45.9116193,11.0017048 C45.9678616,11.0047103 46,11.0047103 46,11.0047103 Z" fill="#727272"></path><path d="M36.7208475,0 L0.197536487,0 C0.197536487,0 -2.34618684,11.8174037 10.8225983,11.8174037 L34.0252601,11.8174037 C39.8638916,11.8174037 46.4482842,13.3135521 43.4571042,19 C45.1032023,16.9048502 46.3018438,14.3624822 46.7493005,11.668331 C48.0970942,4.93837375 43.9045608,0 36.7208475,0 Z" fill="#FFFFFF"></path></svg>