<svg viewBox="-2572.1 5164.8 1796.2 1550.3" xmlns="http://www.w3.org/2000/svg"><path d="m-816.5 5600.4h-395.7-7.2c-22.6-0.4-46.6-0.4-69.2 0h-10.1s-3.5 0-3.5 0 0 6.9 0 13.8v9.5c0.3 1.3 0.3 3.3 0.3 4.3 32.4-5.4 67.2 16.7 69.6 49.6 0.3 3.7 0.1 7.4-0.5 11.3-3.1 34-30.1 59-58.3 74.9-2.7 1.2-5.3 2.3-8.1 3.3-8.2 2.9-16.6 4.5-25.1 4.5h-226.3l-88.3 331.2h226.3c38.6 0 66.2 33.1 55.2 71.8-11 38.6-49.7 71.8-88.3 71.8h-369.9l121.4-480.2h-436l-237.4 921.8h833.5c270.5 0 524.3-182.2 612.7-447 44.2-132.5 33.1-253.9-16.6-347.8 60.7-77.3 104.9-171.1 121.4-270.5 0.1-5.7 0.1-11.2 0.1-22.3z" fill="#D3D3D3"/><path d="m-816.9 5593.6c-5.4 7.6-10.3 15.5-12.7 24-0.6 2.1-1 4.3-1.3 6.5 0.4 9.9-1.1 19.6-3.2 29.4-0.7 3.2-1.5 6.5-2.3 9.7-6.4 19.6-8.5 40.5-12.4 61.1-0.6 3.4-1.3 6.9-2.2 10.3-2.3 6.6-4.8 13.1-7.4 19.5-1.3 3.2-2.7 6.4-4.1 9.6-4.1 7.6-8 15.3-11.9 23.1l-3.9 7.8c-1.7 2.9-3.4 5.8-5 8.8s-3.2 5.9-4.7 8.9c-1.4 2.8-2.8 5.5-4.3 8.3s-3 5.5-4.5 8.3c-11.2 23-26.2 43-41.2 64 9-19 12-40 7.6-60.6-0.8-2.9-1.7-5.7-2.9-8.4-1-2.4-2.2-4.7-3.6-7-31.2-53.3-138.7-75.2-266.5-74.7-4.9 0-9.9 0.1-14.8 0.2-14.7 1.6-29.7 0.6-44.7 1.6 12-13 21-28 26.9-44.2 1.1-3.9 1.8-7.7 2.2-11.4s0.4-7.4 0-10.9c-0.3-3.5-1-7-2-10.2-8.1-28.3-39.1-42.3-66.1-39.3 0-9 0-19-0.4-27.6v-5.5h2.7c26.7 0.1 53.7 0.1 80.7 0h6.3 320.3 12c20.4 1.1 40.4-1.9 60.1-1.4 2.1 0.1 3.3 0.1 3.3 0.1z" fill="#727272"/><path d="m-1185.5 5192h-1346.8s-93.8 436 391.8 436h855.6c215.3 0 458.1 55.2 347.8 265 60.7-77.3 104.9-171.1 121.4-270.5 49.7-248.3-104.9-430.5-369.8-430.5z" fill="#fff"/>
</svg>
