<?xml version="1.0" encoding="utf-8"?>
<svg xmlns="http://www.w3.org/2000/svg">
<symbol id="account" viewBox="0 0 24 24"><path d="M12 12a5 5 0 0 0 5-5c0-2.763-2.238-5-5-5S7 4.237 7 7a5 5 0 0 0 5 5zm0 2c-3.338 0-10 1.787-10 5.333V22h20v-2.667C22 15.787 15.338 14 12 14z"/>
</symbol>
<symbol id="activebets" viewBox="0 0 24 24"><path d="M6 2v6h.01L6 8.01 10 12l-4 4 .01.01H6V22h12v-5.99h-.01L18 16l-4-4 4-3.99-.01-.01H18V2H6zm10 14.5V20H8v-3.5l4-4 4 4zm-4-5l-4-4V4h8v3.5l-4 4z"/>
</symbol>
<symbol id="americanfootball" viewBox="0 0 24 24"><path d="M21.604 2.398c1.444 1.444 1.582 4.652 1.238 7.173-.298 2.04-1.238 5.912-4.286 8.937C14.408 22.68 8.908 23 7.327 23c-1.581 0-3.69-.252-4.881-1.444-1.513-1.49-1.65-4.698-1.26-7.218.297-2.017 1.237-5.844 4.285-8.892C9.596 1.32 15.14 1 16.746 1c1.581 0 3.712.252 4.858 1.398zm-9.716 15.148c.32 0 .641-.138.87-.367a1.218 1.218 0 0 0 0-1.764L11.567 14.2l2.635-2.635 1.192 1.214c.252.23.573.367.894.367.32 0 .641-.138.87-.367.505-.504.505-1.283 0-1.764L15.967 9.8l1.168-1.169a1.259 1.259 0 0 0 0-1.764 1.259 1.259 0 0 0-1.764 0l-1.169 1.168-1.214-1.191c-.482-.504-1.26-.504-1.765 0a1.259 1.259 0 0 0 0 1.764L12.438 9.8l-2.636 2.635-1.214-1.191c-.482-.504-1.26-.504-1.765 0a1.259 1.259 0 0 0 0 1.764L8.038 14.2l-1.17 1.169a1.259 1.259 0 0 0 0 1.764c.23.252.55.367.872.367.32 0 .641-.115.893-.367l1.17-1.168 1.19 1.214c.253.23.574.367.895.367z" fill-rule="evenodd"/>
</symbol>
<symbol id="ban" viewBox="0 0 24 24"><path d="M12 2C6.48 2 2 6.48 2 12s4.48 10 10 10 10-4.48 10-10S17.52 2 12 2zm0 18c-4.42 0-8-3.58-8-8 0-1.85.63-3.55 1.69-4.9L16.9 18.31A7.902 7.902 0 0 1 12 20zm6.31-3.1L7.1 5.69A7.902 7.902 0 0 1 12 4c4.42 0 8 3.58 8 8 0 1.85-.63 3.55-1.69 4.9z"/>
</symbol>
<symbol id="basketball" viewBox="0 0 24 24"><path d="M11.522 1.011a10.985 10.985 0 0 0-7.794 3.751 8.13 8.13 0 0 1 4.422 6.76h3.372V1.01zm.956 0v10.51h3.372a8.13 8.13 0 0 1 4.422-6.759 10.986 10.986 0 0 0-7.794-3.751zM3.115 5.527a10.948 10.948 0 0 0-2.104 5.995h6.182a7.174 7.174 0 0 0-4.078-5.995zm17.77 0a7.174 7.174 0 0 0-4.078 5.995h6.18a10.925 10.925 0 0 0-2.102-5.995zM1.011 12.478a10.942 10.942 0 0 0 2.104 5.995 7.173 7.173 0 0 0 4.078-5.995H1.011zm7.139 0a8.14 8.14 0 0 1-4.423 6.761 10.977 10.977 0 0 0 7.794 3.748V12.478H8.15zm4.328 0v10.51a10.98 10.98 0 0 0 7.794-3.749 8.135 8.135 0 0 1-4.422-6.76h-3.372zm4.329 0a7.174 7.174 0 0 0 4.078 5.995 10.927 10.927 0 0 0 2.102-5.995h-6.18z"/>
</symbol>
<symbol id="bethistory" viewBox="0 0 24 24"><path d="M13 3a9 9 0 0 0-9 9H1l3.89 3.89.07.14L9 12H6c0-3.87 3.13-7 7-7s7 3.13 7 7-3.13 7-7 7c-1.93 0-3.68-.79-4.94-2.06l-1.42 1.42A8.954 8.954 0 0 0 13 21a9 9 0 0 0 0-18zm-1 5v5l4.28 2.54.72-1.21-3.5-2.08V8H12z"/>
</symbol>
<symbol id="boxing" viewBox="0 0 24 24"><path d="M14.206 2c5.775 0 8.8 5.019 8.8 9.969 0 5.706-1.719 9.098-4.606 9.098h-.115c-2.52-.069-2.498-.986-2.613-2.452-.068-.802-.252-1.65-.664-2.338-.413-.664-1.008-1.214-1.627-1.696-.252-.183-.504-.366-.756-.527a1.106 1.106 0 0 0-.321-.206c-.459-.275-.963-.367-1.421 0-.298.252-.436.848-.092 1.169.413.366.917.618 1.352 1.008.527.458.871.963 1.123 1.65.23.665.275 1.535.023 2.2-.435 1.192-1.467 1.925-2.658 1.925-.344 0-.688-.069-1.009-.183-2.108-.78-3.941-2.407-5.591-4.95H2.197a.74.74 0 0 1-.733-.596c-.619-3.3-.619-7.242 0-10.542a.74.74 0 0 1 .733-.596h3.621C7.95 2.985 10.745 2 14.206 2z" fill-rule="evenodd"/>
</symbol>
<symbol id="clock" viewBox="0 0 24 24"><path d="M11.99 2C6.47 2 2 6.48 2 12s4.47 10 9.99 10C17.52 22 22 17.52 22 12S17.52 2 11.99 2zM12 20c-4.42 0-8-3.58-8-8s3.58-8 8-8 8 3.58 8 8-3.58 8-8 8zm.5-13H11v6l5.25 3.15.75-1.23-4.5-2.67V7z"/>
</symbol>
<symbol id="close" viewBox="0 0 24 24"><path d="M21 4.813L19.187 3 12 10.187 4.813 3 3 4.813 10.187 12 3 19.187 4.813 21 12 13.813 19.187 21 21 19.187 13.813 12z"/>
</symbol>
<symbol id="cricket" viewBox="0 0 24 24"><path d="M18.08 1.446c-.473.01-.718.195-.718.195L6.254 12.795a.72.72 0 0 0 0 1.01l3.941 3.94a.72.72 0 0 0 1.01 0L22.357 6.637s.963-1.283-1.375-3.621C19.668 1.7 18.687 1.43 18.08 1.446zm-11.35.012a2.62 2.62 0 0 0-.536.058c-.319.422-.496 1.717.49 2.664.942.906 2.041.863 2.423.631.09-.26.143-.54.143-.832a2.525 2.525 0 0 0-2.52-2.52zm-1.558.543a2.514 2.514 0 0 0-.964 1.978A2.525 2.525 0 0 0 6.73 6.5a2.52 2.52 0 0 0 1.847-.81c-.126.006-.252.01-.376.01-.669 0-1.407-.25-2.099-.913-.866-.83-1.071-1.89-.93-2.786zm.873 13.066v.505c0 .505-.229.964-.55 1.284l-3.853 3.852c-.274.276-.274.78 0 1.055l.595.594a.778.778 0 0 0 1.056 0l3.852-3.853a1.846 1.846 0 0 1 1.33-.549h.503l-2.933-2.888z"/>
</symbol>
<symbol id="down" viewBox="0 0 24 24"><path d="M5.88 7L4 8.903 12 17l8-8.097L18.12 7 12 13.18z"/>
</symbol>
<symbol id="feedback" viewBox="0 0 24 24"><path d="M12 23C5.925 23 1 18.075 1 12S5.925 1 12 1s11 4.925 11 11-4.925 11-11 11zm-1.272-7.936h2.24l.704-8.672H10.04l.688 8.672zM13.496 19v-2.72H10.2V19h3.296z" fill-rule="evenodd"/>
</symbol>
<symbol id="icehockey" viewBox="0 0 24 24"><path d="M20.681 1a.48.48 0 0 0-.461.348l-3.228 11.237a4.456 4.456 0 0 1-4.321 3.241H4.587A3.59 3.59 0 0 0 1 19.413 3.59 3.59 0 0 0 4.587 23h6.888c3.214 0 5.993-2.098 6.914-5.225l4.579-16.166a.478.478 0 0 0-.46-.61L20.681 1zM7.217 3.391C3.783 3.391 1 4.568 1 6.021c0 1.455 2.783 2.631 6.217 2.631 3.434 0 6.218-1.176 6.218-2.63s-2.784-2.63-6.218-2.63zM1 7.905v1.943c0 1.454 2.783 2.63 6.217 2.63 3.434 0 6.218-1.176 6.218-2.63V7.905C12.127 9.03 9.663 9.609 7.217 9.609c-2.445 0-4.91-.579-6.217-1.704zm3.826 8.878h7.652v5.26H4.826v-5.26z"/>
</symbol>
<symbol id="interface" viewBox="0 0 24 24"><path d="M21.908 13.288c.054-.423.092-.85.092-1.288 0-.438-.038-.865-.092-1.288l-2.641-.66a7.478 7.478 0 0 0-.75-1.814l1.4-2.332a10.03 10.03 0 0 0-1.823-1.823l-2.332 1.4a7.462 7.462 0 0 0-1.813-.749l-.661-2.641A9.892 9.892 0 0 0 12 2c-.438 0-.865.038-1.288.092l-.66 2.641a7.484 7.484 0 0 0-1.812.75L5.907 4.081a10.03 10.03 0 0 0-1.823 1.823l1.4 2.332a7.424 7.424 0 0 0-.75 1.814l-2.641.66A10.03 10.03 0 0 0 2 12c0 .438.038.865.092 1.288l2.641.66c.172.642.425 1.251.75 1.814l-1.4 2.332a10.03 10.03 0 0 0 1.823 1.823l2.331-1.4a7.558 7.558 0 0 0 1.814.75l.66 2.641c.423.055.85.092 1.288.092.439 0 .865-.038 1.288-.092l.66-2.641a7.49 7.49 0 0 0 1.815-.75l2.332 1.4a10.051 10.051 0 0 0 1.823-1.823l-1.4-2.332c.325-.563.576-1.17.749-1.813l2.642-.661zM12 15.498a3.498 3.498 0 1 1 0-6.996 3.498 3.498 0 0 1 0 6.996z"/>
</symbol>
<symbol id="left" viewBox="0 0 24 24"><path d="M17 5.88L15.097 4 7 12l8.097 8L17 18.12 10.82 12z"/>
</symbol>
<symbol id="list" viewBox="0 0 24 24"><path d="M24 19.5c0 .275-.225.5-.5.5h-18a.501.501 0 0 1-.5-.5v-2c0-.275.225-.5.5-.5h18c.275 0 .5.225.5.5v2zm-21 0c0 .275-.225.5-.5.5h-2a.501.501 0 0 1-.5-.5v-2c0-.275.225-.5.5-.5h2c.275 0 .5.225.5.5v2zm21-6c0 .275-.225.5-.5.5h-18a.501.501 0 0 1-.5-.5v-2c0-.275.225-.5.5-.5h18c.275 0 .5.225.5.5v2zm-21 0c0 .275-.225.5-.5.5h-2a.501.501 0 0 1-.5-.5v-2c0-.275.225-.5.5-.5h2c.275 0 .5.225.5.5v2zm21-6c0 .275-.225.5-.5.5h-18a.501.501 0 0 1-.5-.5v-2c0-.275.225-.5.5-.5h18c.275 0 .5.225.5.5v2zm-21 0c0 .275-.225.5-.5.5h-2a.501.501 0 0 1-.5-.5v-2c0-.275.225-.5.5-.5h2c.275 0 .5.225.5.5v2z"/>
</symbol>
<symbol id="mixedmartialarts" viewBox="0 0 24 24"><path d="M7.356 1C6.28 1 5.4 1.88 5.4 2.956c0 1.075.88 1.955 1.956 1.955 1.075 0 1.955-.88 1.955-1.955C9.311 1.88 8.431 1 7.356 1zm12.71.489c-1.075 0-1.955.88-1.955 1.955 0 1.076.88 1.956 1.956 1.956 1.075 0 1.955-.88 1.955-1.956 0-1.075-.88-1.955-1.955-1.955zm-4.858 2.414a1.148 1.148 0 0 0-.229.03L5.843 5.981c-.538.098-.983.403-1.375.794L1.642 9.892a1.41 1.41 0 0 0-.2 1.62c.343.635 1.075.885 1.758.641l.733-.306 2.048-.825c.538-.194.836-.836.641-1.375-.098-.293-.286-.48-.58-.626-.147-.05-.296-.107-.444-.107-.146 0-.3.057-.396.107l-.688.245h-.138a.49.49 0 0 1-.489-.49.47.47 0 0 1 .337-.443l.687-.29a2.01 2.01 0 0 1 .78-.153c.293 0 .596.052.84.199.538.244.922.638 1.069 1.176.391 1.028-.15 2.19-1.176 2.582l-2.445.978v4.018l-1.466 4.889c-.196.684.156 1.36.84 1.604.342.098.684.102.977-.046a1.26 1.26 0 0 0 .627-.779l1.375-4.644.198-3.132 1.36 2.795v4.737c0 .683.538 1.222 1.223 1.222.683 0 1.222-.539 1.222-1.222v-4.981c0-.293-.04-.55-.138-.794l-1.62-4.828L9.603 7.69l5.973-1.512c.294-.097.525-.286.672-.58.147-.294.204-.592.108-.886-.173-.514-.638-.835-1.146-.81zm3.071 2.108a2.576 2.576 0 0 0-1.68.611l-2.842 2.49-2.888.642c-.586.147-.972.728-.825 1.314.147.587.682.988 1.269.84l2.978-.595c.05 0 .058.004.108-.046l2.092-1.314-1.114 3.468-1.956 2.933a1.781 1.781 0 0 0-.352.825l-.825 4.935c-.097.635.296 1.232.932 1.33h.245c.244 0 .493-.052.688-.2.244-.194.439-.437.488-.779l.87-4.445 2.2-2.842 2.002 7.333c.098.342.302.584.597.78.293.146.635.204.977.106.636-.195 1.017-.892.87-1.527l-1.893-7.181.091-.443c-.147-.05-.25-.147-.397-.244l-1.512-1.177c-.44-.342-.682-.822-.78-1.36a2.128 2.128 0 0 1 .443-1.512 2.056 2.056 0 0 1 1.605-.795c.439 0 .88.153 1.222.398l.595.442c.098.098.138.19.138.337 0 .293-.195.489-.489.489a.366.366 0 0 1-.244-.092l-.58-.443a1 1 0 0 0-.643-.199c-.293 0-.63.153-.825.397-.194.245-.244.485-.244.78.05.294.202.54.397.687l1.513 1.177c.05.049.146.088.244.137.05 0 .042.046.092.046.049 0 .103.061.152.061.05 0 .043-.004.092.046.05 0 .103-.004.153.046h.244c.245 0 .493-.052.688-.199.147-.098.235-.143.382-.29.342-.391.498-.883.352-1.42l-.734-3.27a2.619 2.619 0 0 0-1.818-1.818l-1.467-.383a2.631 2.631 0 0 0-.611-.076z"/>
</symbol>
<symbol id="mobile" viewBox="0 0 24 24"><path d="M16.5 0h-9A2.507 2.507 0 0 0 5 2.5v19C5 22.875 6.125 24 7.5 24h9c1.375 0 2.5-1.125 2.5-2.5v-19C19 1.125 17.875 0 16.5 0zM12 23.271a1.771 1.771 0 1 1-.001-3.543A1.771 1.771 0 0 1 12 23.271zM7 19V4h10v15H7z"/>
</symbol>
<symbol id="notifications" viewBox="0 0 24 24"><path d="M9.356 21.995A2.827 2.827 0 0 0 12 23.833a2.828 2.828 0 0 0 2.643-1.837c-.836.064-1.717.104-2.643.104-.927 0-1.807-.041-2.644-.105zM22.209 17h-.375l-2.5-3L18 7h-.013A6.069 6.069 0 0 0 13.3 2.079c.004-.01.013-.019.016-.028l.367-1.102C13.857.427 13.55 0 13 0h-2c-.55 0-.857.427-.684.949l.367 1.102c.003.01.012.018.016.028A6.069 6.069 0 0 0 6.013 7H6l-1.334 7-2.5 3h-.375c-.55 0-1 .45-1 1s.42 1.161.934 1.358C1.725 19.358 6 21 12 21s10.275-1.642 10.275-1.642c.514-.197.934-.809.934-1.358s-.45-1-1-1z"/>
</symbol>
<symbol id="right" viewBox="0 0 24 24"><path d="M7 5.88L8.903 4 17 12l-8.097 8L7 18.12 13.18 12z"/>
</symbol>
<symbol id="search" viewBox="0 0 24 24"><path d="M16.58 14.95h-.859l-.304-.294a7.03 7.03 0 0 0 1.705-4.595 7.061 7.061 0 1 0-7.06 7.061 7.03 7.03 0 0 0 4.594-1.705l.294.304v.858L20.38 22 22 20.381l-5.42-5.431zm-6.519 0a4.882 4.882 0 0 1-4.888-4.889 4.882 4.882 0 0 1 4.888-4.888 4.882 4.882 0 0 1 4.889 4.888 4.882 4.882 0 0 1-4.889 4.889z"/>
</symbol>
<symbol id="signout" viewBox="0 0 24 24"><path d="M10.09 15.59L11.5 17l5-5-5-5-1.41 1.41L12.67 11H3v2h9.67l-2.58 2.59zM19 3H5a2 2 0 0 0-2 2v4h2V5h14v14H5v-4H3v4a2 2 0 0 0 2 2h14c1.1 0 2-.9 2-2V5c0-1.1-.9-2-2-2z"/>
</symbol>
<symbol id="soccer" viewBox="0 0 24 24"><path d="M12 1c6.073 0 11 4.927 11 11s-4.927 11-11 11S1 18.073 1 12 5.927 1 12 1zm0 19.869A8.861 8.861 0 0 0 20.869 12a8.912 8.912 0 0 0-1.421-4.812c-1.008.618-2.154 1.122-2.154 1.122-1.467-1.42-3.14-2.13-3.14-2.13s.184-1.399.573-2.636A9.038 9.038 0 0 0 12 3.13 8.861 8.861 0 0 0 3.131 12c0 2.131.734 4.08 1.994 5.615.619-.459 1.352-.825 1.352-.825s1.558 1.398 3.094 2.04c0 0 .137.824.137 1.74a9.37 9.37 0 0 0 2.292.3zm-5.202-7.402c-1.26-1.146-2.131-2.934-2.131-2.934S5.79 8.265 7.508 6.867c1.857.298 3.025 1.214 3.025 1.214v3.575s-1.741.596-3.735 1.81zm9.854 4.4c-1.581.046-3.185-.986-3.185-.986v-3.483s2.04-.756 3.643-1.65c0 0 .94 1.077 1.673 2.842 0 0-.733 2.016-2.13 3.277z" fill-rule="evenodd"/>
</symbol>
<symbol id="star" viewBox="0 0 24 24"><path d="M23 9.621l-7.55-.653L12.5 2 9.55 8.979 2 9.62l5.733 4.98L6.011 22l6.489-3.926L18.989 22l-1.712-7.4L23 9.621zm-10.5 6.484l-3.948 2.39 1.05-4.506-3.486-3.031 4.599-.4L12.5 6.316l1.796 4.252 4.599.4L15.409 14l1.05 4.505-3.959-2.4z"/>
</symbol>
<symbol id="support" viewBox="0 0 24 24"><path d="M12 23C5.925 23 1 18.075 1 12S5.925 1 12 1s11 4.925 11 11-4.925 11-11 11zm.92-13.464c0 .752-.384 1.072-.928 1.552l-.976.784c-.816.672-.864.96-.864 1.904V14.8h2.672v-.624c0-.272.064-.448.224-.576l1.344-1.104c1.12-.912 1.616-1.712 1.616-3.072 0-2-1.248-3.424-4.336-3.424C8.52 6 6.984 7.84 7 10.352h3.024c.016-1.648.848-1.968 1.568-1.968.896 0 1.328.432 1.328 1.152zm.224 9.2v-2.72H9.848v2.72h3.296z" fill-rule="evenodd"/>
</symbol>
<symbol id="up" viewBox="0 0 24 24"><path d="M5.88 17L4 15.097 12 7l8 8.097L18.12 17 12 10.82z"/>
</symbol>
<symbol id="wallets" viewBox="0 0 24 24"><path d="M21 18v1c0 1.1-.9 2-2 2H5a2 2 0 0 1-2-2V5a2 2 0 0 1 2-2h14c1.1 0 2 .9 2 2v1h-9a2 2 0 0 0-2 2v8a2 2 0 0 0 2 2h9zm-9-2h10V8H12v8zm4-2.5c-.83 0-1.5-.67-1.5-1.5s.67-1.5 1.5-1.5 1.5.67 1.5 1.5-.67 1.5-1.5 1.5z"/>
</symbol></svg>